<?xml version="1.0" encoding="UTF-8"?>
<svg id="Layer_1" data-name="Layer 1" xmlns="http://www.w3.org/2000/svg" xmlns:xlink="http://www.w3.org/1999/xlink" viewBox="0 0 672.34 697.07">
  <defs>
    <style>
      .cls-1 {
        fill: #b8d0e0;
      }

      .cls-2 {
        fill: #a4afbf;
      }

      .cls-3 {
        fill: #9edae3;
      }

      .cls-4 {
        fill: #b1e1f8;
      }

      .cls-5 {
        fill: #b7dcf1;
      }

      .cls-6 {
        fill: #9fc8e7;
      }

      .cls-7 {
        fill: #a6bbcd;
      }

      .cls-8 {
        fill: url(#linear-gradient-2);
      }

      .cls-9 {
        fill: #a7cfed;
      }

      .cls-10 {
        fill: #bcdef1;
      }

      .cls-11 {
        fill: #becedc;
      }

      .cls-12 {
        fill: #99b1cb;
      }

      .cls-13 {
        fill: #9cc5df;
      }

      .cls-14 {
        fill: url(#linear-gradient);
      }

      .cls-15 {
        fill: #93acc3;
      }

      .cls-16 {
        fill: #9cc9ea;
      }

      .cls-17 {
        fill: #7d99bc;
      }

      .cls-18 {
        fill: #b6cbdb;
      }

      .cls-19 {
        fill: #92b9de;
      }

      .cls-20 {
        fill: #c5d5e0;
      }

      .cls-21 {
        fill: #adc7db;
      }

      .cls-22 {
        fill: #aee0f7;
      }

      .cls-23 {
        fill: #aad8f3;
      }

      .cls-24 {
        fill: #9ab4ca;
      }

      .cls-25 {
        fill: #c7e9f7;
      }

      .cls-26 {
        fill: #87aac9;
      }

      .cls-27 {
        fill: #bad1e3;
      }

      .cls-28 {
        fill: #9dc8eb;
      }

      .cls-29 {
        fill: #aebbc9;
      }

      .cls-30 {
        fill: #a6cae6;
      }

      .cls-31 {
        fill: #9dc3e4;
      }

      .cls-32 {
        fill: #9ccbec;
      }

      .cls-33 {
        fill: #b1e0f6;
      }

      .cls-34 {
        fill: #a8cbdd;
      }

      .cls-35 {
        fill: #b8cfdf;
      }

      .cls-36 {
        fill: #97c6ea;
      }

      .cls-37 {
        fill: #9ea9bf;
      }

      .cls-38 {
        fill: #93bde2;
      }

      .cls-39 {
        fill: #acd6f2;
      }

      .cls-40 {
        fill: #98c2e2;
      }

      .cls-41 {
        fill: #a4c9e9;
      }

      .cls-42 {
        fill: #a6d6f2;
      }

      .cls-43 {
        fill: #a4d1f0;
      }

      .cls-44 {
        fill: #bdcfdd;
      }

      .cls-45 {
        fill: #9ec5e6;
      }

      .cls-46 {
        fill: #b5dcf0;
      }

      .cls-47 {
        fill: #91bee5;
      }

      .cls-48 {
        fill: #a1c2d8;
      }

      .cls-49 {
        fill: #b6c9d9;
      }

      .cls-50 {
        fill: #a2cbec;
      }

      .cls-51 {
        fill: #c1e3f4;
      }

      .cls-52 {
        fill: #b5e0f7;
      }

      .cls-53 {
        fill: #bee6f9;
      }

      .cls-54 {
        fill: #99c1d8;
      }

      .cls-55 {
        fill: #a0c3e4;
      }

      .cls-56 {
        fill: #97a8be;
      }

      .cls-57 {
        fill: #74aadc;
      }

      .cls-58 {
        fill: #b3c5d4;
      }

      .cls-59 {
        fill: #a9b9ca;
      }
    </style>
    <linearGradient id="linear-gradient" x1="-.89" y1="947.19" x2="1140.31" y2="960.21" gradientTransform="translate(10.62 232.1) scale(.3)" gradientUnits="userSpaceOnUse">
      <stop offset="0" stop-color="#5cc7d6"/>
      <stop offset=".11" stop-color="#6bc9cf"/>
      <stop offset="1" stop-color="#74aadc"/>
    </linearGradient>
    <linearGradient id="linear-gradient-2" x1="408.01" y1="-274.56" x2="1225.78" y2="219.4" gradientTransform="translate(10.62 232.1) scale(.3)" gradientUnits="userSpaceOnUse">
      <stop offset="0" stop-color="#5fc7d7"/>
      <stop offset="1" stop-color="#b1e1f0"/>
    </linearGradient>
  </defs>
  <g>
    <path class="cls-50" d="M637.83,313.49l1.71,3.68c1.86,7.72-2.16,15.19-8.19,16.4-7.88,1.58-15.42-1.11-16.85-8.48-1.45-7.49,1.17-14.55,7.37-16.69,5.97-2.06,13.17-.91,15.96,5.09Z"/>
    <path class="cls-4" d="M504.79,230.68c-7.56,1-14.93.83-22.1-.5-.9-.24-1.71-.57-2.19-1.15-2.34-2.88,4.35-11.34,6.81-13.96-2.83-7.68-2.08-11.63,2.27-11.83,5.65.31,10.48-.97,16.14.7-.29,9.07,1.09,17.95-.94,26.75Z"/>
    <path class="cls-36" d="M576.95,355.34c2.08-2.51,4.64-4.74,7.69-6.71,3.67-7.32,7.98-10.74,12.92-10.25,2.7,1.35,5.59,2.55,8.58,5.31l-23.62,32.67c-4.33-7.09-6.87-14.08-5.57-21.02Z"/>
    <path class="cls-47" d="M671.44,342.5c.58,6.72-1.18,9.39-8.05,9.77-3.58,5.17-7.22,7.19-10.9,6.07-.19-.34-.2-1.12-.12-1.54l-1.77-3.36c-2.09-1.91-3.41-4.64-3.06-7.52.41-3.37,9.6-14.92,16.94-19.84,3.57,5.37,5.05,11.11,6.95,16.41Z"/>
    <path class="cls-22" d="M581.08,171.48l1.22,2.07.17,3.18c-.97,2.22-2.57,3.99-4.83,5.33-.87.28-2.34,1.12-2.94,1.76-3.98,2.52-7.53,3-10.65,1.44-.1-.31-.18-.91-.12-1.28l-3.09-5.49c-.01-3.61,2.18-7.57,6.57-11.88l1.69-1.33,1.63-2.02c1.31-1.61,2.4-3.46,4.82-4.63,3.51,4.12,4.97,8.31,5.53,12.85Z"/>
    <path class="cls-41" d="M634.83,379.32c-9.15,6.07-17.63,8.01-27.99,11.47.41-9.08,3.06-14.91,5.82-23.13l22.17,11.66Z"/>
    <path class="cls-33" d="M512.41,140.26c.47-1.47,1.08-1.47,1.81-.06l1.66,1.66c-.42-1,.22-1.02,1.93-.07,4.27,3.84.91,10.22-2.98,13.82l-4.1,2.97c-.88-.19-2.23-.14-3.16,0l-5.29-3.06c-1.72-1.13-3.55-1.54-5.05-3.34-1.92-7.98,8.66-17.54,15.17-11.92Z"/>
    <path class="cls-16" d="M581.07,300.74c4.98-1.57,11.01-1.1,12.85,3.6,1.71,4.37,1.06,10.15-4.51,13.15-3.84,2.07-9.64,1.51-12.21-4.61-1.45-3.45-1.86-10.33,3.86-12.13Z"/>
    <path class="cls-9" d="M597.55,338.38c-8.04,5.73-9.39,17.54-20.6,16.96l4.67-24.91,15.93,7.95Z"/>
    <path class="cls-53" d="M489.59,203.24c-3.13,5.01,4.75,10.78-1.27,16.1-3.53,3.13-5.73,6.55-5.63,10.84-.18.79-.95,1.19-2.31,1.22-2.31-.1-2.5-3.29-2.95-4.53l-.12-19.19c1.05-2.98,1.93-5.03,4.52-4.89l7.76.43Z"/>
    <path class="cls-45" d="M652.5,358.34l10.14-10.01c1.7-.16,5.29.49,6.59-.63,1.3-1.11,1.86-3.4,2.21-5.21,3.44,9.61-3.57,16.18-11.55,25.98-4.48-2.78-5.57-6.78-7.39-10.14Z"/>
    <path class="cls-40" d="M602.08,266.4l-1.44-2.67s1.87-2.91,5.6-8.72c3.42-1.47,5.75-2.58,10.61-3.35-.83,10.9.21,16.91-8.83,21.62l-5.95-6.88Z"/>
    <path class="cls-38" d="M650.5,416.86c-3.45,2.4-9.2,2.95-11.76.03l-2.02-2.3c-2.58-2.94-3.16-8.1-.58-11.82,9.39-4.73,19.45,4.59,14.37,14.09Z"/>
    <path class="cls-10" d="M544.94,212.13c1.24,4.18-1.35,5.25-3.31,6.36-2.98,1.68-6.15,2.61-8.3-.54-1.76-2.59-3.05-5.7-2.48-8.59.51-2.61,4.57-4.03,7.61-4.42,3.32-.44,5.26,3.04,6.49,7.2Z"/>
    <path class="cls-6" d="M648.21,283.82c-3.5,2.56-8.6,2.31-10.14.46-1.51-1.81-2.51-6.57-1.74-9.44.61-2.29,6.28-3.35,8.99-2.29,3.59,1.39,5.61,9.27,2.89,11.27Z"/>
    <path class="cls-31" d="M577.32,423.8c-4.03-1.68-6.39-4.51-6.59-6.41-.24-2.33,1.53-5.47,4.2-7.52,3.06-2.35,8.03,1.69,9.17,4.68,1.43,3.75-3.61,10.56-6.78,9.24Z"/>
    <path class="cls-55" d="M650.5,416.86c0-8.89-6.4-13.08-14.37-14.09,3.4-4.9,12.07-5.07,15.24-.93,3.6,4.7,4.23,11.46-.87,15.01Z"/>
    <path class="cls-42" d="M607.76,212.52c0,2.97-1.11,5-3.72,6.5-4.91,1.29-14.79.9-11.37-5.56-5.34-8.35,13.45-11.07,15.09-.94Z"/>
    <path class="cls-5" d="M606.26,205.17c.52.68.36,1.22-.43,1.63l1.93,2.2v3.52c-2.8-3.44-5.76-3.49-10.59-2.67l-3.42.58c-.94.16-1.58,1.73-1.07,3.02-.35,3.11-1.56,2.93-2.47-.04l-.86-1.81c.99-.49.95-.99.1-1.68.22-3.55,2.95-7.25,5.94-7.88,4.31-.91,8.32-.2,10.87,3.12Z"/>
    <path class="cls-19" d="M623.26,347.99c2.18-2.31,7.09-1.21,8.59.4,1.94,2.09,1.64,6.81.11,8.82-1.7,2.22-6.23,1.44-8.06.24-2.21-1.45-3.58-6.33-.63-9.46Z"/>
    <path class="cls-46" d="M452.82,183.02c2.63-1.32,7.2-1.23,8.15.59,1.21,2.35,1.05,6.75-.24,8.33-1.73,2.12-6.27,1.31-7.95.06-2.07-1.54-3.32-7.29.04-8.98Z"/>
    <path class="cls-51" d="M512.41,140.26c-6.8.22-13.66,5.03-15.17,11.92-3.76-4.5-.66-10.22,3.68-13.58l1.65-1.75c1.67-1.67,3.36-2.24,5.1-1.72.49-.02,1.06-.03,1.52.09,2.69,1.59,3.77,3.27,3.22,5.04Z"/>
    <path class="cls-30" d="M602.08,266.4c-1.41-1.63-5.03-4.81-3.55-7.48,1.05-1.89,5.67-3.03,7.71-3.91.75,1.22,2.35,4.08.78,6.06l-4.94,5.33Z"/>
    <path class="cls-34" d="M477.43,226.88c-2.44-6.62-2.34-12.84-.12-19.19,2.84,6.23,2.65,13.83.12,19.19Z"/>
    <path class="cls-13" d="M567.74,255.61c.61-7.19-7.94-1.45-17.26-5.2,1.67-1.38,3.59-1.35,5.98-1.13l12.32,1.15c1.19.59.32,4.82-1.04,5.18Z"/>
    <path class="cls-7" d="M504.79,230.68c-7.89,2.18-16.4,1.06-24.41.72.74-.34,1.67-1.22,2.31-1.22l22.1.5Z"/>
    <path class="cls-21" d="M604.04,219.02c-3.2,1.83-8.64,2.1-11.91-.1-1.74-1.17-1.4-4.38-1.93-5.51l2.47.04c-.06,1.19.2,2.58.7,3.35.79,1.2,2.16,1.76,4.04,1.75l6.62.46Z"/>
    <path class="cls-11" d="M560.84,178.48c-.5-.69-1.83-1.31-1.66-2.55.13-.93.21-1.97,1.14-2.82l7.09-6.51c.16,5.83-6.92,6.83-6.57,11.88Z"/>
    <path class="cls-49" d="M574.7,183.81c-1.52,1.6-3.12,2.55-5.79,3.66-1.88.78-3.93.68-4.86-2.22l10.65-1.44Z"/>
    <path class="cls-20" d="M507.67,135.13c-1.32,1.36-3.21,1.89-5.1,1.72.54-1.41,1.32-2.47,2.64-3.18,1.11-.6,2.57-.09,2.45,1.47Z"/>
    <path class="cls-44" d="M577.64,182.06c.84-2.44,2.6-4.24,4.83-5.33.08,1.55,0,3.77-1.58,4.28l-3.25,1.05Z"/>
    <path class="cls-1" d="M507.58,158.58c-2.75.41-3.78-2.07-5.29-3.06,2.5-.55,4.68.71,5.29,3.06Z"/>
    <path class="cls-20" d="M515.89,140.2c-.51.78-1.06.76-1.67,0l-1.81.06-3.22-5.04c2.8.73,4.83,3.17,6.7,4.98Z"/>
    <path class="cls-58" d="M563.93,183.97c-2.08-1.13-2.69-3.32-3.09-5.49,2.43.73,3.5,3.07,3.09,5.49Z"/>
    <path class="cls-1" d="M510.74,158.59c.58-1.83,2.11-3,4.1-2.97-1.06.99-1.28,3.56-4.1,2.97Z"/>
    <path class="cls-45" d="M652.38,356.81c-1.08-.7-1.29-2.5-1.77-3.36,1.62.23,2.04,1.97,1.77,3.36Z"/>
    <path class="cls-12" d="M639.54,317.17c-1.63-.88-2.33-2.38-1.71-3.68l1.71,3.68Z"/>
    <path class="cls-26" d="M569.36,380.72l-.05-2.62,2.38.25c1.11.12.93,1.36-.01,1.65l-2.31.72Z"/>
    <path class="cls-42" d="M607.76,209.01c-.91-.72-1.63-1.34-1.93-2.2.71-.61,1.28-.46,1.73.41l.2,1.8Z"/>
    <path class="cls-37" d="M607.56,207.21l-1.73-.41.43-1.63c.5.65,1.21,1.19,1.3,2.04Z"/>
    <path class="cls-44" d="M582.3,173.54c-.42-.51-1.13-1.37-1.22-2.07.53.53,1.18,1.32,1.22,2.07Z"/>
    <path class="cls-2" d="M569.1,165.28l1.63-2.02c-.43.76-.94,1.49-1.63,2.02Z"/>
    <path class="cls-59" d="M517.82,141.79l-1.93.07c-.69-.52-.67-1.07,0-1.66l1.93,1.6Z"/>
    <path class="cls-29" d="M500.93,138.6c.51-.4,1.34-1.24,1.65-1.75l-1.65,1.75Z"/>
    <path class="cls-17" d="M638.74,416.89l-2.02-2.3c1.34.75,2.04,1.52,2.02,2.3Z"/>
    <path class="cls-56" d="M589.34,211.61l.1-1.68c1.9-.04,1.86,2.13-.1,1.68Z"/>
    <path class="cls-51" d="M515.89,141.86c-.76-.32-1.35-.9-1.66-1.66h1.67s0,1.66,0,1.66Z"/>
    <g>
      <path class="cls-14" d="M359.28,697.07l-38.91-96.73-1.29-2.13-58.97-152.45-91.02-33.63-114.73-42.88-5.19-2.42-26.63-9.39-5.03-2.07-6.5-3.14c-8.58-4.24-3.04-7.04,5.06-7.66,11.02-.84,24.73.48,35.81,1.56l7.67-1.52,99.5.26,1.97,3.33c13.09-1.22,27.27-1.25,40.07.15,40.4-1.51,83.86-1.42,124.97-.14.02-1.28.37-2.55,1.46-3.33s25.17-.33,27.91,0l3.27,3.33c.45,82.13.01,164.33.5,246.58"/>
      <path class="cls-8" d="M358.71,348.2h-32.77c-41.76-.49-83.42.67-124.97.13-13.05.55-26.4-.61-40.07-.15l-96.38-.23c-5.05-.01-7-.44-12.39,1.41l-16.31-1.6c-8.83,1.03-16.94,1.21-25.45-.96-1.13,2.76.08,3.91.52,5.4-2.81-1.36-10.87-4.99-10.87-4.99l124.96-46.56,135.35-50.63L358.27,7.2"/>
      <path class="cls-23" d="M567.74,255.61c-1.91,4.41-4.56,12.5-10.35,14.11-8.14,2.27-16.44-.1-25.13.42,4.3-8.44,10.95-16.31,18.22-19.73,6.14-.37,12.05.15,17.75,1.58l-.49,3.62Z"/>
      <path class="cls-32" d="M555.13,301.29c1.93,6.55,5.53,15.04,6.01,21.72-1.03,1.85-2.12,3.05-3.32,3.51-4.75,1.79-16.89-4.99-18.49-11.43l1.35-2.1c-4.97-.4-3.15-8.38,1.62-8.34,3.85,1.55,8.78-2.49,12.84-3.36Z"/>
      <path class="cls-48" d="M426.33,230.31l.94,1.54c.28.45.14,2.04-1.32,1.69-2.64-.63-3.35-3.33-3.34-5.07l3.72,1.85Z"/>
      <path class="cls-18" d="M457.84,248.54c-2.64-1.14-2.92-2.47-3.88-5.03,1.79,1.25,2.98,2.99,3.88,5.03Z"/>
      <path class="cls-54" d="M422.61,228.46c-.3-.3-1.12-.82-1.35-1.32"/>
      <path class="cls-57" d="M320.37,600.34l-1.29-2.13c1.19-.07,1.85,1.17,1.29,2.13Z"/>
      <path class="cls-28" d="M442.93,485.13c.29-.74.44-1.51,1.25-1.96-.26.7-.9,1.4-1.25,1.96Z"/>
      <path class="cls-3" d="M359.32,188.49c-.46,1.45-.99,1.43-1.6,0"/>
      <path class="cls-35" d="M410.39,310.88c.54,2.83-1.38,2.95-3.61,2.65-1.33-.18-2.82-.11-2.04-2.49,1.27.01,3.96.4,5.65-.16Z"/>
      <path class="cls-43" d="M456.13,353.09c.39-.02,1.06.03,1.4-.2.1,2.22-2.09,2.67-4.03,2.23-.89-.2-2.44,0-2.57-1.79.25-1.66,3.46-.83,5.2-.24Z"/>
      <path class="cls-39" d="M456.13,353.09l-5.2.24.18-1.87c1.34.51,3.84-.14,5.02,1.62Z"/>
      <path class="cls-27" d="M422.37,292.66c-.95-1.55-1.42-2.85-1.11-4.04,1.4,1.12.77,2.61,1.11,4.04Z"/>
      <path class="cls-24" d="M476.14,297.37l-1.73-1.95,1.73,1.95Z"/>
      <path class="cls-52" d="M400.27,291.75c1.06-.93,2.54-1.5,3.25-1.56l-3.25,1.56Z"/>
      <path class="cls-15" d="M459.12,312.95l-1.84-1.85,1.84,1.85Z"/>
      <path class="cls-43" d="M539.33,315.08c-.18-.84.38-2.05,1.35-2.1-.15.77-.82,1.51-1.35,2.1Z"/>
    </g>
  </g>
  <path class="cls-25" d="M415.66,213.52c-2-3.82-2.58-7.6-1.74-11.34l15.59-9.63c2.09-1.29,3.02-2.62,3.35-4.72.27-1.67-1.09-3.07-1.42-4.5l-6.93-17.03-2.2-4.36-9.64-25.49-.02-.2-1.94-4.36c.17-1.25.39,1,0,0-5.25-10.15-16.69-41.39-16.69-41.39l-.02-.04-.02-.02-1.07-2.75L358.27,7.2l-1.6,231.88c-.22,27.2-.41,54.45-.56,76.32l.57-67.25.47,325.27-1.32-228.38c.43,76.11.87,152.31,1.32,228.57l.17,120.29,83.65-211.93,1.25-1.96,9.32-25.56c-7.78-2.33-15.12-6.72-17.01-14.71-2.78-11.71,5.9-22.06,16.98-22.85,11.03-.79,20.75,7.54,20.97,19.81l36.57-13.3c4.24-3.29,2.3-5.76-5.8-7.41.54-2.26.28-3.31-2.27-4.64l3.66-1.8c.46-6.3,1.61-12.39,3.47-18.27,7.56,2.52,15.16,3.95,22.8,4.3,4.28,4.15,7.48-.39,5.95-5.07,1.77-1.42,2.08-4.98-.31-5.8,1.4-6.09,6.98-8.05,12.57-9.03l1.14-3.59c-3.54-3.03-5.21-6.62-7.45-10.86l-7.32-13.84,23.96-21.63c2.59-2.34-.17-4.42-.27-5.92-7.41,1.36-13.92-1.42-18.23-7.78l-3.59-.15-3.81-.75c-.64,6.12-18.25-3.31-19.09-4.49-1.23-1.74,10.42-9.38,14.36-6.17,5.94,3.52,9.78,3.84,11.51.98.73,6.68,13.69,2.13,12.84-3.36-.5-1.71-1.22-3.33-.79-5.15.51-2.2,9.67-6.2,6.01-7.68l-46.31-18.66-8.63,15.96-24.1-9.87,5.66-14.72-29.12-12.61-3.88-5.03c-.14-3.02-1.19-5.96-2.94-8.42l-1.25-5.53c-.36-1.44-.41-5.11-2.59-5.81-7.18,1.86-13.61,6.37-20.86,6.56.02,2.56-1.22,1.94-3.72-1.85M419.3,285.45c1.4,1.12.77,2.61,1.11,4.04l3.14,13.2-15.12,5.02c.54,2.83-1.38,2.95-3.61,2.65-1.33-.18-2.82-.11-2.04-2.49-1-7.03-6-12.78-4.48-19.29,1.06-.93,2.54-1.5,3.25-1.56,7.91-.65,12-6.17,17.74-1.57ZM394.04,244.59c.34-.98,1.52-.82,2.11-1.23,2.45-1.71,6.41-2.09,8.71-.24,1.4,1.12,2.62,4.08,1.3,6.51-1.01,1.86-3.99,3.82-6.99,2.93-2.06-.61-3.17-3-4.11-5.61-.19-.54-1.43-1.17-1.02-2.36ZM401.47,381.98l3.74-16.3,11.64,1.45c.94.12,1.78.43,2.25,1.35,2.26.18,6.03.22,7.42,1.75,2.96,3.24-3.57,11.38-1.09,14.58M455.57,349.72c.1,2.22-2.09,2.67-4.03,2.23-.89-.2-2.44,0-2.57-1.79l.18-1.87c-3.3-1.27-4.95-5.65-4.23-8.18,1.27-4.46,4.67-6.12,8.09-5.89,4.06.28,7.03,2.79,7.48,6.89.35,3.15-2.03,6.69-4.92,8.61ZM467.32,392.65c-2.93,1-3.91.14-5.2-3.28-1.12-2.98-1.62-5.37,3.81-6.87,3.69-1.02,5.06,1.83,5.87,4.15,1.16,3.37-1.16,4.87-4.47,6ZM467.94,317.74l-10.78-7.97-1.84-1.85c-1.02-1.03-4.39-4.26-3.11-5.78l12.61-15.06,7.64,5.16,1.73,1.95c2.3,2.59,5.53,3.66,7.43,7.73l-13.68,15.81ZM507.63,371.73c-9.72,2.04-15.3-3.46-20.48-10.07-2.86-3.65-1.7-6.61.06-10.49,3.67-8.04,10.61-13.81,19.72-11.66,7.08,1.66,12.97,7.73,13.22,15.18.3,9.01-5.45,15.55-12.53,17.04Z"/>
</svg>